<mxfile host="app.diagrams.net" modified="2023-07-11T08:28:59.480Z" agent="Mozilla/5.0 (Windows NT 10.0; Win64; x64) AppleWebKit/537.36 (KHTML, like Gecko) Chrome/114.0.0.0 Safari/537.36" version="21.6.1" etag="HnyEJvfuOS6Fo0wowHjy" type="github">
  <diagram name="Seite-1" id="LnFeSpEB6-M4goXaHd3p">
    <mxGraphModel>
      <root>
        <mxCell id="0" />
        <mxCell id="1" parent="0" />
      </root>
    </mxGraphModel>
  </diagram>
</mxfile>
